<svg width="112" height="21" viewBox="0 0 112 21" fill="none" xmlns="http://www.w3.org/2000/svg">
<path fill-rule="evenodd" clip-rule="evenodd" d="M67.6225 7.0148C65.5341 7.01468 63.5312 7.82676 62.0544 9.27221C58.9478 12.3127 50.5833 20.4996 50.5833 20.4996L40.5418 20.4992L56.7599 4.62558C59.4589 1.98393 63.1186 0.500231 66.9355 0.5C77.9592 0.500002 100.418 0.500314 100.418 0.500314L93.7018 7.01443C93.7018 7.01443 75.2676 7.01482 67.6225 7.0148Z" fill="#FAFAFA"/>
<path fill-rule="evenodd" clip-rule="evenodd" d="M56.9689 3.32036L53.16 7.01444L27.0807 7.01481C24.9922 7.01469 22.9893 7.82677 21.5125 9.27221L10.0414 20.4997L0 20.4992L16.2181 4.62559C18.9171 1.98394 22.5768 0.50024 26.3936 0.500009L61.9342 0.500132C60.1141 1.10056 58.4229 2.0553 56.9689 3.32036Z" fill="#FAFAFA"/>
<path fill-rule="evenodd" clip-rule="evenodd" d="M69.6559 13.7401C68.4561 13.7403 67.3056 14.2065 66.4571 15.037C65.4001 16.0715 60.8755 20.5 60.8755 20.5L51.6458 20.4999L62.4888 9.88729C63.8853 8.52043 65.7798 7.75224 67.7547 7.75254C75.0887 7.7524 93.0092 7.75243 93.0092 7.75243L86.8896 13.7399C86.8896 13.7399 74.45 13.7401 69.6559 13.7401Z" fill="#FAFAFA"/>
<path fill-rule="evenodd" clip-rule="evenodd" d="M11.104 20.4999L21.947 9.88729C23.3435 8.52043 25.238 7.75224 27.2129 7.75254L52.4674 7.75243L46.3478 13.7399L29.1141 13.7401C28.1967 13.74 27.3083 14.0127 26.5617 14.5121L45.561 14.5121L39.4414 20.4996L11.104 20.4999Z" fill="#FAFAFA"/>
<path fill-rule="evenodd" clip-rule="evenodd" d="M112 0.500302L91.5667 20.4996L81.0343 20.4998L101.468 0.5005L112 0.500302Z" fill="#FAFAFA"/>
</svg>
