<svg width="88" height="16" viewBox="0 0 88 16" fill="none" xmlns="http://www.w3.org/2000/svg">
<path fill-rule="evenodd" clip-rule="evenodd" d="M53.132 5.21184C51.491 5.21175 49.9174 5.86141 48.757 7.01776C46.3162 9.45019 39.744 15.9997 39.744 15.9997L31.8543 15.9993L44.5971 3.30046C46.7177 1.18714 49.5932 0.000184825 52.5922 0C61.2536 1.93973e-06 78.9002 0.000251406 78.9002 0.000251406L73.6229 5.21155C73.6229 5.21155 59.1388 5.21186 53.132 5.21184Z" fill="#F26418"/>
<path fill-rule="evenodd" clip-rule="evenodd" d="M44.7613 2.25629L41.7686 5.21155L21.2777 5.21185C19.6368 5.21175 18.0631 5.86141 16.9027 7.01777L7.88969 15.9997L0 15.9993L12.7428 3.30047C14.8634 1.18715 17.7389 0.00019172 20.7379 6.92596e-06L48.6626 0.000105277C47.2325 0.480446 45.9037 1.24424 44.7613 2.25629Z" fill="#F26418"/>
<path fill-rule="evenodd" clip-rule="evenodd" d="M54.7296 10.5921C53.7869 10.5922 52.883 10.9652 52.2163 11.6296C51.3858 12.4572 47.8308 16 47.8308 16L40.5788 16L49.0983 7.50984C50.1956 6.41635 51.6841 5.8018 53.2359 5.80203C58.9983 5.80192 73.0786 5.80194 73.0786 5.80194L68.2704 10.5919C68.2704 10.5919 58.4964 10.5921 54.7296 10.5921Z" fill="#F26418"/>
<path fill-rule="evenodd" clip-rule="evenodd" d="M8.72456 16L17.244 7.50984C18.3413 6.41635 19.8298 5.8018 21.3816 5.80203L41.2244 5.80194L36.4161 10.5919L22.8754 10.5921C22.1546 10.592 21.4565 10.8102 20.8699 11.2097L35.7979 11.2097L30.9896 15.9997L8.72456 16Z" fill="#F26418"/>
<path fill-rule="evenodd" clip-rule="evenodd" d="M88 0.000241844L71.9452 15.9997L63.6698 15.9998L79.7246 0.000400279L88 0.000241844Z" fill="#F26418"/>
</svg>
